<svg width="151" height="151" viewBox="0 0 151 151" fill="none" xmlns="http://www.w3.org/2000/svg">
<circle cx="75.5" cy="75.5" r="75.5" fill="#2F80ED"/>
<path d="M93.3342 38H84.1685C84.1685 43.1013 80.0542 47.2502 75 47.2502C69.9458 47.2502 65.8342 43.1013 65.8342 38H56.6671L31 52.8L38.3343 73.1498L49.3342 69.4495V112H100.668V69.4495L111.668 73.1498L119 52.8L93.3342 38ZM109.439 68.501L101.826 65.9401L97 64.3157V69.4497V108.298H53V69.4497V64.3157L48.1741 65.9403L40.5605 68.5012L35.5023 54.4653L57.6406 41.7003H62.6989C64.2767 47.0497 69.1872 50.9505 75 50.9505C80.8142 50.9505 85.7235 47.0497 87.2997 41.7003H92.3594L114.499 54.4653L109.439 68.501Z" fill="white"/>
</svg>
